<svg xmlns="http://www.w3.org/2000/svg" width="1200" height="340" viewBox="0 0 1200 340" preserveAspectRatio="xMidYMid meet" role="img" aria-labelledby="title desc">
  <title id="title">PlantPot Studio</title>
  <desc id="desc">Editorial project cover with an abstract three-dimensional plant diorama.</desc>
  <defs>
    <linearGradient id="bg" x1="0" y1="0" x2="1" y2="1">
      <stop offset="0" stop-color="#07100d"/>
      <stop offset="0.58" stop-color="#0b1712"/>
      <stop offset="1" stop-color="#11160d"/>
    </linearGradient>
    <linearGradient id="ground" x1="0" y1="0" x2="0" y2="1">
      <stop offset="0" stop-color="#d9ff63"/>
      <stop offset="1" stop-color="#678b20"/>
    </linearGradient>
    <linearGradient id="pot" x1="0" y1="0" x2="1" y2="1">
      <stop offset="0" stop-color="#ff815d"/>
      <stop offset="1" stop-color="#9c2f2b"/>
    </linearGradient>
    <pattern id="grid" width="28" height="28" patternUnits="userSpaceOnUse">
      <path d="M28 0H0V28" fill="none" stroke="#e8ffd6" stroke-opacity="0.035"/>
    </pattern>
  </defs>

  <rect width="1200" height="340" rx="22" fill="url(#bg)"/>
  <rect x="1" y="1" width="1198" height="338" rx="21" fill="none" stroke="#dfffc2" stroke-opacity="0.12"/>
  <rect width="1200" height="340" rx="22" fill="url(#grid)"/>

  <g font-family="Segoe UI, Arial, Helvetica, sans-serif">
    <text x="62" y="66" fill="#caff4c" font-size="14" font-weight="700" letter-spacing="2.7">02 / SELECTED WORK</text>
    <text x="58" y="155" fill="#f3f5ec" font-size="57" font-weight="750" letter-spacing="-1.5">PLANTPOT</text>
    <text x="58" y="214" fill="#f3f5ec" font-size="57" font-weight="750" letter-spacing="-1.5">STUDIO</text>
    <rect x="61" y="239" width="250" height="3" fill="#caff4c"/>
    <text x="61" y="278" fill="#a9b4a9" font-size="15" letter-spacing="1.3">AN EXPLORABLE 3D WORLD</text>
  </g>

  <g transform="translate(700 25)">
    <ellipse cx="250" cy="272" rx="222" ry="38" fill="#000000" fill-opacity="0.35"/>
    <path d="M44 222L244 112L452 222L252 317Z" fill="url(#ground)"/>
    <path d="M44 222V239L252 334V317Z" fill="#476619"/>
    <path d="M452 222V239L252 334V317Z" fill="#6f9526"/>

    <g transform="translate(183 75)">
      <ellipse cx="70" cy="150" rx="75" ry="23" fill="#26130f" fill-opacity="0.4"/>
      <path d="M20 93H120L106 162C103 177 91 185 70 185C49 185 37 177 34 162Z" fill="url(#pot)"/>
      <ellipse cx="70" cy="93" rx="50" ry="14" fill="#ff9a74"/>
      <ellipse cx="70" cy="93" rx="39" ry="9" fill="#38211b"/>
      <path d="M70 92C69 48 73 23 82 -4" fill="none" stroke="#8ec43d" stroke-width="7" stroke-linecap="round"/>
      <path d="M72 68C40 60 29 39 35 15C64 17 79 34 72 68Z" fill="#caff4c"/>
      <path d="M77 48C102 42 117 22 113 1C87 3 72 19 77 48Z" fill="#83ad2e"/>
      <path d="M69 90C42 85 31 67 35 49C59 49 74 64 69 90Z" fill="#6f972a"/>
    </g>

    <g fill="#f7ffe3">
      <circle cx="110" cy="226" r="5" fill-opacity="0.7"/>
      <circle cx="386" cy="221" r="4" fill-opacity="0.45"/>
      <circle cx="351" cy="264" r="3" fill-opacity="0.55"/>
      <circle cx="156" cy="260" r="3" fill-opacity="0.4"/>
    </g>
    <g fill="none" stroke="#f7ffe3" stroke-opacity="0.22">
      <ellipse cx="250" cy="163" rx="181" ry="58" transform="rotate(-12 250 163)"/>
      <ellipse cx="250" cy="163" rx="150" ry="42" transform="rotate(48 250 163)"/>
    </g>
  </g>

  <g font-family="Segoe UI, Arial, Helvetica, sans-serif">
    <rect x="1010" y="28" width="134" height="32" rx="16" fill="#ffffff" fill-opacity="0.055" stroke="#dfffc2" stroke-opacity="0.12"/>
    <text x="1077" y="49" text-anchor="middle" fill="#c7d4c5" font-size="11" letter-spacing="1.4">R3F / DREI</text>
  </g>
</svg>
