<svg xmlns="http://www.w3.org/2000/svg" width="1200" height="340" viewBox="0 0 1200 340" preserveAspectRatio="xMidYMid meet" role="img" aria-labelledby="title desc">
  <title id="title">Qitchen</title>
  <desc id="desc">Editorial project cover inspired by cinematic Japanese dining.</desc>
  <defs>
    <linearGradient id="bg" x1="0" y1="0" x2="1" y2="1">
      <stop offset="0" stop-color="#11100e"/>
      <stop offset="0.62" stop-color="#191713"/>
      <stop offset="1" stop-color="#0d0c0b"/>
    </linearGradient>
    <radialGradient id="plate" cx="0.43" cy="0.38" r="0.65">
      <stop offset="0" stop-color="#f9f1df"/>
      <stop offset="0.72" stop-color="#d8cdb8"/>
      <stop offset="1" stop-color="#968d7d"/>
    </radialGradient>
    <linearGradient id="fish" x1="0" y1="0" x2="1" y2="1">
      <stop offset="0" stop-color="#ff8f62"/>
      <stop offset="1" stop-color="#c73a27"/>
    </linearGradient>
    <pattern id="grid" width="28" height="28" patternUnits="userSpaceOnUse">
      <path d="M28 0H0V28" fill="none" stroke="#fff8eb" stroke-opacity="0.035"/>
    </pattern>
  </defs>

  <rect width="1200" height="340" rx="22" fill="url(#bg)"/>
  <rect x="1" y="1" width="1198" height="338" rx="21" fill="none" stroke="#fff6e8" stroke-opacity="0.12"/>
  <rect width="1200" height="340" rx="22" fill="url(#grid)"/>

  <g font-family="Segoe UI, Arial, Helvetica, sans-serif">
    <text x="62" y="66" fill="#ff704c" font-size="14" font-weight="700" letter-spacing="2.7">03 / SELECTED WORK</text>
    <text x="58" y="188" fill="#f6f0e4" font-size="76" font-weight="750" letter-spacing="-2">QITCHEN</text>
    <rect x="61" y="217" width="250" height="3" fill="#ff704c"/>
    <text x="61" y="258" fill="#aaa59b" font-size="15" letter-spacing="1.3">A CINEMATIC DINING STORY</text>
    <rect x="61" y="282" width="96" height="30" rx="15" fill="#f6f0e4" fill-opacity="0.06" stroke="#f6f0e4" stroke-opacity="0.14"/>
    <text x="109" y="302" text-anchor="middle" fill="#cbc5ba" font-size="11" letter-spacing="1.1">LIVE SITE</text>
  </g>

  <g transform="translate(714 9)">
    <circle cx="240" cy="161" r="144" fill="#000000" fill-opacity="0.36"/>
    <circle cx="240" cy="153" r="139" fill="url(#plate)"/>
    <circle cx="240" cy="153" r="116" fill="#1b1916"/>
    <circle cx="240" cy="153" r="108" fill="#211e19" stroke="#f8ecda" stroke-opacity="0.16"/>

    <g transform="rotate(-18 240 153)">
      <rect x="151" y="113" width="174" height="80" rx="34" fill="#f2eadb"/>
      <path d="M151 135C184 99 280 96 325 126V165C288 191 191 198 151 164Z" fill="url(#fish)"/>
      <path d="M177 126C207 145 254 151 300 127M169 147C214 168 269 169 313 145M179 169C223 185 267 184 303 165" fill="none" stroke="#ffe0c9" stroke-opacity="0.55" stroke-width="3"/>
    </g>

    <circle cx="166" cy="232" r="25" fill="#caff4c" fill-opacity="0.8"/>
    <path d="M156 231C163 216 176 218 181 229C175 238 164 243 156 231Z" fill="#385113"/>
    <circle cx="327" cy="91" r="14" fill="#ff704c" fill-opacity="0.9"/>
    <circle cx="340" cy="108" r="8" fill="#fff2df" fill-opacity="0.6"/>
  </g>

  <g fill="none" stroke="#ff704c" stroke-opacity="0.32">
    <circle cx="953" cy="162" r="164"/>
    <circle cx="953" cy="162" r="183" stroke-opacity="0.12"/>
  </g>
  <g font-family="Segoe UI, Arial, Helvetica, sans-serif">
    <rect x="1028" y="28" width="116" height="32" rx="16" fill="#ffffff" fill-opacity="0.055" stroke="#ffffff" stroke-opacity="0.12"/>
    <text x="1086" y="49" text-anchor="middle" fill="#c7c1b7" font-size="11" letter-spacing="1.4">MOTION</text>
  </g>
</svg>
